<svg xmlns="http://www.w3.org/2000/svg" xmlns:xlink="http://www.w3.org/1999/xlink" version="1.1" id="Layer_1" x="0px" y="0px" width="100%" viewBox="0 0 301 279" enable-background="new 0 0 301 279" xml:space="preserve">
<path fill="#182b50" opacity="1.000000" stroke="none" d=" M181.000000,280.000000   C120.692459,280.000000 60.884926,280.000000 1.038693,280.000000   C1.038693,187.065903 1.038693,94.131783 1.038693,1.098834   C101.224106,1.098834 201.448334,1.098834 301.836304,1.098834   C301.836304,93.999771 301.836304,186.999863 301.836304,280.000000   C261.798615,280.000000 221.649307,280.000000 181.000000,280.000000  M154.701355,244.767685   C157.483627,243.214401 160.265900,241.661133 163.828735,240.016098   C164.466843,240.119812 165.142136,240.122620 165.737656,240.341965   C181.668289,246.209427 197.093475,253.681458 214.255829,255.633728   C224.404938,256.788208 233.979553,254.275711 236.529922,242.680130   C238.766449,232.511459 239.823029,222.054001 240.924896,211.673599   C241.948975,202.025772 242.177155,192.294479 243.143005,182.638687   C243.364120,180.428162 244.675568,177.813278 246.335464,176.347076   C254.440689,169.187592 262.706848,162.194626 271.166351,155.456985   C277.695709,150.256653 282.708984,144.000854 286.138550,136.463455   C288.712646,130.806137 286.894348,120.440605 282.619568,117.266434   C267.993744,106.406296 253.248428,95.707298 238.598679,84.879227   C234.023376,81.497490 229.785278,78.470444 228.747452,71.641708   C226.584351,57.409069 223.754135,43.171993 219.744522,29.358650   C216.421097,17.909163 207.135834,10.073067 192.706955,16.222229   C174.974106,23.779461 157.559723,32.082195 139.943100,39.917522   C138.566071,40.529991 136.514648,40.460258 135.062973,39.927471   C128.530243,37.529854 122.209641,34.520348 115.609863,32.346939   C104.506363,28.690384 93.517464,24.265829 81.442398,24.993814   C71.853401,25.571918 66.504684,29.859407 65.274078,38.353680   C62.482853,57.620167 61.062992,77.083443 58.932972,96.449936   C58.660583,98.926498 58.207649,102.110260 56.583527,103.576035   C51.522182,108.143936 45.456856,111.620613 40.519444,116.299797   C32.667526,123.741051 24.850819,131.358582 18.074127,139.753159   C12.200864,147.028641 11.785245,157.156418 20.256172,163.708557   C31.726513,172.580688 43.335945,181.272995 55.179783,190.685654   C57.820065,191.902084 60.460346,193.118530 63.275280,194.757812   C63.275280,194.757812 63.719772,194.866150 63.982094,195.406219   C64.313972,195.548691 64.645859,195.691162 65.609535,196.117157   C67.734306,198.582031 70.759216,200.728195 71.771439,203.586975   C73.264198,207.802963 73.317421,212.527328 73.995041,217.033493   C75.852943,229.388641 77.942566,241.643326 82.909477,253.283813   C87.279716,263.525970 96.280319,269.194824 105.827530,265.456329   C122.083923,259.090607 137.962158,251.759140 154.701355,244.767685  z"/>
<path fill="#89d5b1" opacity="1.000000" stroke="none" d=" M63.719772,194.866150   C63.719772,194.866150 63.275280,194.757812 64.120972,194.385727   C65.588791,193.907257 66.210922,193.800873 66.935219,193.994659   C68.285881,194.531601 69.534378,194.768356 71.000137,195.046310   C71.000137,185.109131 70.814125,175.940903 71.126717,166.789688   C71.208138,164.406250 72.411835,161.761185 73.851204,159.782730   C77.542229,154.709335 83.061424,157.718491 87.363892,157.225143   C88.733788,141.172684 90.097092,125.197433 91.501663,108.738602   C84.182228,111.535187 76.332535,113.270103 69.882500,117.264908   C56.901375,125.304718 44.857407,134.841385 32.083340,143.237961   C24.550785,148.189209 24.396259,152.177521 31.233938,158.666153   C38.775524,165.822769 46.679512,172.598907 54.180347,179.796417   C57.384712,182.871185 59.967880,186.593338 62.676060,190.168182   C62.319912,190.523697 62.146976,190.752014 61.666668,191.000000   C60.888889,191.000000 60.444447,191.000000 59.634727,190.927277   C57.808205,190.583862 56.346954,190.313156 54.885704,190.042450   C43.335945,181.272995 31.726513,172.580688 20.256172,163.708557   C11.785245,157.156418 12.200864,147.028641 18.074127,139.753159   C24.850819,131.358582 32.667526,123.741051 40.519444,116.299797   C45.456856,111.620613 51.522182,108.143936 56.583527,103.576035   C58.207649,102.110260 58.660583,98.926498 58.932972,96.449936   C61.062992,77.083443 62.482853,57.620167 65.274078,38.353680   C66.504684,29.859407 71.853401,25.571918 81.442398,24.993814   C93.517464,24.265829 104.506363,28.690384 115.609863,32.346939   C122.209641,34.520348 128.530243,37.529854 135.062973,39.927471   C136.514648,40.460258 138.566071,40.529991 139.943100,39.917522   C157.559723,32.082195 174.974106,23.779461 192.706955,16.222229   C207.135834,10.073067 216.421097,17.909163 219.744522,29.358650   C223.754135,43.171993 226.584351,57.409069 228.747452,71.641708   C229.785278,78.470444 234.023376,81.497490 238.598679,84.879227   C253.248428,95.707298 267.993744,106.406296 282.619568,117.266434   C286.894348,120.440605 288.712646,130.806137 286.138550,136.463455   C282.708984,144.000854 277.695709,150.256653 271.166351,155.456985   C262.706848,162.194626 254.440689,169.187592 246.335464,176.347076   C244.675568,177.813278 243.364120,180.428162 243.143005,182.638687   C242.177155,192.294479 241.948975,202.025772 240.924896,211.673599   C239.823029,222.054001 238.766449,232.511459 236.529922,242.680130   C233.979553,254.275711 224.404938,256.788208 214.255829,255.633728   C197.093475,253.681458 181.668289,246.209427 165.737656,240.341965   C165.142136,240.122620 164.466843,240.119812 163.167267,239.843140   C160.965866,239.099167 159.425934,238.528168 157.927338,237.588730   C151.549286,233.574936 145.080078,230.013855 138.725693,226.258484   C133.306335,223.055695 127.465843,219.766342 129.135193,212.028564   C129.803879,208.929092 131.937164,206.145584 133.224487,203.576157   C120.263351,194.537598 107.277267,185.481628 94.235291,176.386673   C93.506615,179.280197 92.639671,181.913391 92.206100,184.616135   C91.353661,189.929901 89.890244,195.331100 90.192589,200.609467   C91.055450,215.673492 93.027977,230.675217 93.838043,245.740479   C94.192749,252.337250 98.625526,255.188553 104.228394,253.837433   C109.254440,252.625427 114.163521,250.926270 119.119919,249.427872   C130.735626,245.916290 142.348755,242.396194 153.970505,239.305328   C153.985138,241.431870 153.992218,243.132675 153.999283,244.833466   C137.962158,251.759140 122.083923,259.090607 105.827530,265.456329   C96.280319,269.194824 87.279716,263.525970 82.909477,253.283813   C77.942566,241.643326 75.852943,229.388641 73.995041,217.033493   C73.317421,212.527328 73.264198,207.802963 71.771439,203.586975   C70.759216,200.728195 67.734306,198.582031 65.101120,195.797043   C64.301727,195.273331 64.010750,195.069748 63.719772,194.866150  M168.028854,76.024467   C168.028854,76.024467 168.098007,76.057228 167.485107,76.253159   C164.725052,80.050690 168.207977,79.429588 170.024277,79.971535   C170.024277,79.971535 170.057465,79.902283 170.237167,80.556770   C174.278259,83.516777 178.278839,86.536011 182.411133,89.362679   C182.934265,89.720535 184.148010,89.068794 185.754700,88.994926   C192.893158,94.010612 200.031616,99.026306 207.527710,104.293282   C210.529587,92.440697 212.611618,81.203018 210.342072,69.053703   C208.331131,58.288879 208.541962,47.088223 208.050385,36.067551   C207.712860,28.499975 206.260437,26.824606 198.704895,27.037600   C197.284256,27.077650 195.849625,27.510965 194.468521,27.921232   C185.003174,30.732986 175.536880,33.543064 166.097855,36.441505   C158.828812,38.673615 151.599136,41.033894 143.426620,43.631264   C146.450073,45.154514 148.708664,46.064301 150.727066,47.350876   C157.565826,51.710037 164.493652,55.964603 171.030487,60.747070   C174.180344,63.051575 173.823196,68.791054 170.374817,72.111038   C169.603592,73.438644 168.832352,74.766251 168.028854,76.024467  M65.199883,97.272118   C71.884857,93.288979 78.353889,88.870270 85.305046,85.424004   C95.935326,80.153671 100.629906,82.475456 104.376938,93.647812   C111.574699,90.270950 118.765816,86.859070 125.990005,83.518692   C133.200073,80.184860 140.443253,76.922646 148.477173,73.262131   C142.158340,68.041542 136.707855,61.922173 129.927216,58.277203   C116.371376,50.990189 102.060402,45.114834 88.114685,38.543156   C81.562401,35.455505 78.057350,36.725918 76.035126,43.896172   C73.840569,51.677441 72.038902,59.575363 70.255577,67.465286   C68.040962,77.263359 66.020851,87.105408 63.371132,97.150414   C63.317204,97.606316 63.263271,98.062218 63.209343,98.518120   C63.691074,98.249252 64.172806,97.980385 65.199883,97.272118  M97.004639,160.113831   C98.070213,161.421295 98.946526,162.964828 100.233269,163.996429   C106.729218,169.204315 113.389786,174.206970 119.882423,179.418884   C127.633789,185.641205 135.273468,192.002670 141.905060,197.437988   C160.859772,190.168549 178.787613,183.292923 197.054733,176.287186   C197.054733,173.667419 196.704407,170.797775 197.114914,168.041458   C198.961014,155.645966 200.292664,143.104416 203.253586,130.967773   C205.373352,122.278900 203.912842,117.351830 196.097992,112.104324   C184.198792,104.114250 173.684631,94.074486 162.418533,85.110977   C161.115646,84.074379 158.475891,83.561432 156.955048,84.133217   C140.603867,90.280579 124.338646,96.658592 108.103203,103.107674   C106.863136,103.600266 105.410782,104.967545 105.126534,106.179146   C104.421844,109.182869 104.461395,112.351448 103.981888,115.419403   C101.695572,130.047714 99.335884,144.664566 97.004639,160.113831  M231.012878,87.568703   C231.008575,95.899879 231.044815,104.231445 230.964355,112.561890   C230.949036,114.148476 230.747604,115.841400 230.161758,117.295853   C227.439957,124.053337 223.477615,125.495247 214.574295,123.281082   C213.182129,139.386032 211.787888,155.515076 210.349396,172.156097   C218.338104,168.904266 226.714676,166.673935 233.811630,162.345520   C246.284531,154.738312 257.928650,145.780319 270.009705,137.519455   C277.209930,132.596054 278.100464,129.684387 271.278687,122.922424   C261.651550,113.379700 251.571991,104.288376 241.560989,95.140709   C238.277100,92.140007 234.604599,89.564583 231.012878,87.568703  M155.258820,206.254654   C155.560120,207.391998 155.484634,208.978195 156.221451,209.596741   C163.050934,215.329788 169.275635,221.637802 177.931442,225.188629   C190.095764,230.178696 201.703903,236.514160 213.613281,242.140106   C220.486649,245.387054 223.375641,244.148315 225.902344,237.212265   C226.397751,235.852310 226.665222,234.406113 226.996368,232.990021   C230.647934,217.374435 234.308823,201.760956 237.893768,186.130066   C238.111191,185.182037 237.707474,184.091553 237.552902,182.711441   C233.523773,185.316879 230.056671,187.711609 226.440338,189.854462   C222.809097,192.006165 219.091553,194.034225 215.301697,195.891754   C206.675430,200.119766 201.509079,198.023956 198.049377,189.046631   C197.793259,188.382034 197.658615,187.670609 197.553513,187.291382   C183.456161,193.643143 169.706970,199.838043 155.258820,206.254654  z"/>
<path fill="#89d5b1" opacity="1.000000" stroke="none" d=" M157.886002,237.957169   C159.425934,238.528168 160.965866,239.099167 162.776978,239.889008   C160.265900,241.661133 157.483627,243.214401 154.350311,244.800568   C153.992218,243.132675 153.985138,241.431870 154.142181,238.987732   C155.499512,238.148651 156.692764,238.052917 157.886002,237.957169  z"/>
<path fill="#89d5b1" opacity="1.000000" stroke="none" d=" M55.032745,190.364044   C56.346954,190.313156 57.808205,190.583862 59.829647,191.200378   C61.593227,192.030807 62.796612,192.515396 64.551888,193.013092   C65.471786,193.029358 65.839806,193.032547 66.445038,193.123627   C66.732529,193.372498 66.782791,193.533478 66.833054,193.694473   C66.210922,193.800873 65.588791,193.907257 64.033646,194.174301   C60.460346,193.118530 57.820065,191.902084 55.032745,190.364044  z"/>
<path fill="#89d5b1" opacity="1.000000" stroke="none" d=" M63.850933,195.136185   C64.010750,195.069748 64.301727,195.273331 64.785217,195.655273   C64.645859,195.691162 64.313972,195.548691 63.850933,195.136185  z"/>
<path fill="#182b50" opacity="1.000000" stroke="none" d=" M97.003471,159.699661   C99.335884,144.664566 101.695572,130.047714 103.981888,115.419403   C104.461395,112.351448 104.421844,109.182869 105.126534,106.179146   C105.410782,104.967545 106.863136,103.600266 108.103203,103.107674   C124.338646,96.658592 140.603867,90.280579 156.955048,84.133217   C158.475891,83.561432 161.115646,84.074379 162.418533,85.110977   C173.684631,94.074486 184.198792,104.114250 196.097992,112.104324   C203.912842,117.351830 205.373352,122.278900 203.253586,130.967773   C200.292664,143.104416 198.961014,155.645966 197.114914,168.041458   C196.704407,170.797775 197.054733,173.667419 197.054733,176.287186   C178.787613,183.292923 160.859772,190.168549 141.905060,197.437988   C135.273468,192.002670 127.633789,185.641205 119.882423,179.418884   C113.389786,174.206970 106.729218,169.204315 100.233269,163.996429   C98.946526,162.964828 98.070213,161.421295 97.003471,159.699661  z"/>
<path fill="#182b50" opacity="1.000000" stroke="none" d=" M66.935219,193.994659   C66.782791,193.533478 66.732529,193.372498 66.426620,193.085403   C66.170982,192.959305 66.086044,192.959137 66.042709,192.759827   C65.668350,192.429260 65.337334,192.298019 64.768173,192.087036   C64.367554,191.966827 64.205086,191.926361 63.977459,191.655884   C63.727551,191.131195 63.461506,190.975037 63.053459,190.720520   C62.992756,190.483643 62.833317,190.021317 62.833321,190.021317   C59.967880,186.593338 57.384712,182.871185 54.180347,179.796417   C46.679512,172.598907 38.775524,165.822769 31.233938,158.666153   C24.396259,152.177521 24.550785,148.189209 32.083340,143.237961   C44.857407,134.841385 56.901375,125.304718 69.882500,117.264908   C76.332535,113.270103 84.182228,111.535187 91.501663,108.738602   C90.097092,125.197433 88.733788,141.172684 87.363892,157.225143   C83.061424,157.718491 77.542229,154.709335 73.851204,159.782730   C72.411835,161.761185 71.208138,164.406250 71.126717,166.789688   C70.814125,175.940903 71.000137,185.109131 71.000137,195.046310   C69.534378,194.768356 68.285881,194.531601 66.935219,193.994659  z"/>
<path fill="#182b50" opacity="1.000000" stroke="none" d=" M157.927338,237.588730   C156.692764,238.052917 155.499512,238.148651 154.134613,238.561981   C142.348755,242.396194 130.735626,245.916290 119.119919,249.427872   C114.163521,250.926270 109.254440,252.625427 104.228394,253.837433   C98.625526,255.188553 94.192749,252.337250 93.838043,245.740479   C93.027977,230.675217 91.055450,215.673492 90.192589,200.609467   C89.890244,195.331100 91.353661,189.929901 92.206100,184.616135   C92.639671,181.913391 93.506615,179.280197 94.235291,176.386673   C107.277267,185.481628 120.263351,194.537598 133.224487,203.576157   C131.937164,206.145584 129.803879,208.929092 129.135193,212.028564   C127.465843,219.766342 133.306335,223.055695 138.725693,226.258484   C145.080078,230.013855 151.549286,233.574936 157.927338,237.588730  z"/>
<path fill="#182b50" opacity="1.000000" stroke="none" d=" M171.114822,72.042244   C173.823196,68.791054 174.180344,63.051575 171.030487,60.747070   C164.493652,55.964603 157.565826,51.710037 150.727066,47.350876   C148.708664,46.064301 146.450073,45.154514 143.426620,43.631264   C151.599136,41.033894 158.828812,38.673615 166.097855,36.441505   C175.536880,33.543064 185.003174,30.732986 194.468521,27.921232   C195.849625,27.510965 197.284256,27.077650 198.704895,27.037600   C206.260437,26.824606 207.712860,28.499975 208.050385,36.067551   C208.541962,47.088223 208.331131,58.288879 210.342072,69.053703   C212.611618,81.203018 210.529587,92.440697 207.527710,104.293282   C200.031616,99.026306 192.893158,94.010612 185.259369,88.624435   C179.861862,85.470055 174.959656,82.686165 170.057465,79.902283   C170.057465,79.902283 170.024277,79.971535 169.929565,79.650833   C169.255905,78.239159 168.676956,77.148193 168.098007,76.057228   C168.098007,76.057228 168.028854,76.024467 168.352325,75.927063   C169.488815,74.567184 170.301819,73.304718 171.114822,72.042244  z"/>
<path fill="#182b50" opacity="1.000000" stroke="none" d=" M231.061340,87.181702   C234.604599,89.564583 238.277100,92.140007 241.560989,95.140709   C251.571991,104.288376 261.651550,113.379700 271.278687,122.922424   C278.100464,129.684387 277.209930,132.596054 270.009705,137.519455   C257.928650,145.780319 246.284531,154.738312 233.811630,162.345520   C226.714676,166.673935 218.338104,168.904266 210.349396,172.156097   C211.787888,155.515076 213.182129,139.386032 214.574295,123.281082   C223.477615,125.495247 227.439957,124.053337 230.161758,117.295853   C230.747604,115.841400 230.949036,114.148476 230.964355,112.561890   C231.044815,104.231445 231.008575,95.899879 231.061340,87.181702  z"/>
<path fill="#182b50" opacity="1.000000" stroke="none" d=" M63.916733,96.928459   C66.020851,87.105408 68.040962,77.263359 70.255577,67.465286   C72.038902,59.575363 73.840569,51.677441 76.035126,43.896172   C78.057350,36.725918 81.562401,35.455505 88.114685,38.543156   C102.060402,45.114834 116.371376,50.990189 129.927216,58.277203   C136.707855,61.922173 142.158340,68.041542 148.477173,73.262131   C140.443253,76.922646 133.200073,80.184860 125.990005,83.518692   C118.765816,86.859070 111.574699,90.270950 104.376938,93.647812   C100.629906,82.475456 95.935326,80.153671 85.305046,85.424004   C78.353889,88.870270 71.884857,93.288979 64.744621,97.294296   C64.165154,97.187134 64.040947,97.057800 63.916733,96.928459  z"/>
<path fill="#182b50" opacity="1.000000" stroke="none" d=" M155.608292,206.143799   C169.706970,199.838043 183.456161,193.643143 197.553513,187.291382   C197.658615,187.670609 197.793259,188.382034 198.049377,189.046631   C201.509079,198.023956 206.675430,200.119766 215.301697,195.891754   C219.091553,194.034225 222.809097,192.006165 226.440338,189.854462   C230.056671,187.711609 233.523773,185.316879 237.552902,182.711441   C237.707474,184.091553 238.111191,185.182037 237.893768,186.130066   C234.308823,201.760956 230.647934,217.374435 226.996368,232.990021   C226.665222,234.406113 226.397751,235.852310 225.902344,237.212265   C223.375641,244.148315 220.486649,245.387054 213.613281,242.140106   C201.703903,236.514160 190.095764,230.178696 177.931442,225.188629   C169.275635,221.637802 163.050934,215.329788 156.221451,209.596741   C155.484634,208.978195 155.560120,207.391998 155.608292,206.143799  z"/>
<path fill="#89d5b1" opacity="1.000000" stroke="none" d=" M170.147308,80.229523   C174.959656,82.686165 179.861862,85.470055 184.902924,88.569366   C184.148010,89.068794 182.934265,89.720535 182.411133,89.362679   C178.278839,86.536011 174.278259,83.516777 170.147308,80.229523  z"/>
<path fill="#89d5b1" opacity="1.000000" stroke="none" d=" M167.791565,76.155197   C168.676956,77.148193 169.255905,78.239159 169.964310,79.634506   C168.207977,79.429588 164.725052,80.050690 167.791565,76.155197  z"/>
<path fill="#89d5b1" opacity="1.000000" stroke="none" d=" M170.744812,72.076645   C170.301819,73.304718 169.488815,74.567184 168.368469,75.961754   C168.832352,74.766251 169.603592,73.438644 170.744812,72.076645  z"/>
<path fill="#89d5b1" opacity="1.000000" stroke="none" d=" M63.114162,190.957382   C63.461506,190.975037 63.727551,191.131195 63.966537,191.934402   C64.013855,192.628616 64.006927,192.814301 64.000000,193.000000   C62.796612,192.515396 61.593227,192.030807 60.194920,191.273102   C60.444447,191.000000 60.888889,191.000000 61.945221,190.989594   C62.742790,190.971924 62.928474,190.964661 63.114162,190.957382  z"/>
<path fill="#182b50" opacity="1.000000" stroke="none" d=" M64.471947,97.513992   C64.172806,97.980385 63.691074,98.249252 63.209343,98.518120   C63.263271,98.062218 63.317204,97.606316 63.643932,97.039436   C64.040947,97.057800 64.165154,97.187134 64.471947,97.513992  z"/>
<path fill="#89d5b1" opacity="1.000000" stroke="none" d=" M63.053459,190.720520   C62.928474,190.964661 62.742790,190.971924 62.278549,190.989594   C62.146976,190.752014 62.319912,190.523697 62.676056,190.168182   C62.833317,190.021317 62.992756,190.483643 63.053459,190.720520  z"/>
<path fill="#89d5b1" opacity="1.000000" stroke="none" d=" M64.551888,193.013092   C64.006927,192.814301 64.013855,192.628616 64.031708,192.164429   C64.205086,191.926361 64.367554,191.966827 65.028870,192.297699   C65.713829,192.711807 65.899940,192.835480 66.086044,192.959137   C66.086044,192.959137 66.170982,192.959305 66.189400,192.997528   C65.839806,193.032547 65.471786,193.029358 64.551888,193.013092  z"/>
<path fill="#89d5b1" opacity="1.000000" stroke="none" d=" M66.042709,192.759827   C65.899940,192.835480 65.713829,192.711807 65.267014,192.377441   C65.337334,192.298019 65.668350,192.429260 66.042709,192.759827  z"/>
</svg>